#!OML:ASF X:\für Bonn\!DataBase\2005_08_10_Bjorn_Final\c3d\bjorn.ASF
:FULLY-SPECIFIED
:DEGREES
121
root -18.3215 19.4604 0.0419361 1861.14 -86.1441 -419.504
lowerback -3.52558 8.07056 -3.72954
upperback 7.08631 11.4909 -9.96004
thorax 11.116 5.60074 -7.28771
lowerneck -5.86104 -11.6462 6.30663
upperneck 2.25728 -16.4586 6.98805
head 1.78782 -8.06942 0.632829
rclavicle 1.59028e-015 2.54444e-014
rhumerus 46.1696 -10.9675 -40.8736
rradius 32.3849
rwrist -22.3257
rhand 7.08007 2.0637
rfingers 7.12502
rthumb 32.3519 -25.071
lclavicle 1.59028e-015 2.54444e-014
lhumerus -21.7239 -0.789448 76.8765
lradius 23.0152
lwrist -19.9467
lhand -21.6061 -7.55143
lfingers 7.12502
lthumb 4.78913 22.3744
rfemur -7.16569 -8.00913 19.7698
rtibia 33.5928
rfoot -14.741 15.4373
rtoes -9.64549
lfemur -16.6392 6.50452 -16.0286
ltibia 28.0919
lfoot -4.60601 -14.7014
ltoes 2.11278
122
root -18.3502 19.4584 0.0445847 1859.45 -86.049 -417.792
lowerback -3.59649 8.07993 -3.7613
upperback 7.08086 11.5151 -9.9658
thorax 11.1504 5.60952 -7.26459
lowerneck -5.75972 -11.7066 6.24279
upperneck 2.25818 -16.5382 7.16857
head 1.79432 -8.10888 0.698792
rclavicle -9.70069e-014 7.31528e-014
rhumerus 45.8279 -10.3646 -40.0197
rradius 32.5604
rwrist -22.6731
rhand 8.34075 1.55364
rfingers 7.12502
rthumb 33.5509 -25.3287
lclavicle -9.70069e-014 7.31528e-014
lhumerus -21.9045 -0.603523 76.715
lradius 22.8998
lwrist -20.2155
lhand -21.4665 -7.4703
lfingers 7.12502
lthumb 4.92395 22.4525
rfemur -7.26025 -7.91164 19.845
rtibia 33.3702
rfoot -14.8344 15.6242
rtoes -9.49569
lfemur -16.6315 6.50983 -16.0162
ltibia 28.1686
lfoot -4.67834 -14.8417
ltoes 2.27453
123
root -18.3771 19.4572 0.0461223 1857.55 -85.9618 -415.858
lowerback -3.69127 8.08207 -3.83066
upperback 7.09314 11.5359 -9.96669
thorax 11.2102 5.61235 -7.21312
lowerneck -5.68621 -11.7636 6.24233
upperneck 2.24136 -16.6143 7.28051
head 1.78779 -8.14789 0.73505
rclavicle 6.99722e-014 3.18055e-015
rhumerus 45.4898 -9.78755 -39.1744
rradius 32.8257
rwrist -23.0012
rhand 9.47382 1.07899
rfingers 7.12502
rthumb 34.6271 -25.5633
lclavicle 6.99722e-014 3.18055e-015
lhumerus -22.0451 -0.409204 76.5538
lradius 22.7431
lwrist -20.4739
lhand -21.3475 -7.49643
lfingers 7.12502
lthumb 5.03885 22.4237
rfemur -7.37558 -7.78525 19.9126
rtibia 33.1831
rfoot -14.9501 15.6935
rtoes -9.76813
lfemur -16.6263 6.53376 -16.0249
ltibia 28.2242
lfoot -4.74066 -15.0375
ltoes 2.3393
124
root -18.4039 19.4564 0.0475201 1856.05 -85.8575 -414.314
lowerback -3.80879 8.08363 -3.87002
upperback 7.10989 11.5576 -9.96203
thorax 11.2938 5.6178 -7.16859
lowerneck -5.60328 -11.8071 6.24645
upperneck 2.18289 -16.6696 7.40835
head 1.7671 -8.17886 0.778239
rclavicle -6.36111e-014 -5.08889e-014
rhumerus 45.2038 -9.25941 -38.4457
rradius 33.0823
rwrist -23.2803
rhand 10.421 0.592108
rfingers 7.12502
rthumb 35.5255 -25.8396
lclavicle -6.36111e-014 -5.08889e-014
lhumerus -22.1935 -0.204858 76.3803
lradius 22.619
lwrist -20.7269
lhand -21.2065 -7.53784
lfingers 7.12502
lthumb 5.175 22.379
rfemur -7.47802 -7.65914 19.9928
rtibia 33.0223
rfoot -15.0478 15.7864
rtoes -10.0509
lfemur -16.6146 6.5624 -16.0078
ltibia 28.2665
lfoot -4.81187 -15.2303
ltoes 2.35703
125
root -18.4274 19.4567 0.049183 1853.91 -85.7692 -412.15
lowerback -3.90201 8.06046 -3.98526
upperback 7.13714 11.547 -9.92434
thorax 11.3456 5.59886 -7.05375
lowerneck -5.57192 -11.8444 6.17934
upperneck 2.20251 -16.7187 7.48814
head 1.78236 -8.20186 0.810609
rclavicle -1.90833e-014 -4.13472e-014
rhumerus 44.9515 -8.74867 -37.7049
rradius 33.2935
rwrist -23.5627
rhand 11.1929 0.427856
rfingers 7.12502
rthumb 36.2569 -25.8251
lclavicle -1.90833e-014 -4.13472e-014
lhumerus -22.3685 0.162827 76.256
lradius 22.4806
lwrist -21.0368
lhand -21.0484 -7.57175
lfingers 7.12502
lthumb 5.32763 22.3413
rfemur -7.58791 -7.54592 20.0222
rtibia 32.9045
rfoot -15.0668 15.8342
rtoes -10.1728
lfemur -16.5942 6.53645 -16.0415
ltibia 28.2782
lfoot -4.83223 -15.362
ltoes 2.51629
126
root -18.4497 19.4584 0.0499903 1852.03 -85.655 -410.252
lowerback -4.00681 8.04002 -4.04595
upperback 7.18908 11.5413 -9.90414
thorax 11.4506 5.58776 -6.98588
lowerneck -5.53222 -11.8829 6.14716
upperneck 2.15656 -16.7705 7.62814
head 1.77777 -8.22941 0.858911
rclavicle -3.97569e-014 -9.54166e-014
rhumerus 44.6713 -8.32207 -37.0416
rradius 33.5743
rwrist -23.8877
rhand 11.6673 0.356701
rfingers 7.12502
rthumb 36.706 -25.7832
lclavicle -3.97569e-014 -9.54166e-014
lhumerus -22.533 0.34351 76.117
lradius 22.4436
lwrist -21.1687
lhand -20.8798 -7.48906
lfingers 7.12502
lthumb 5.49037 22.4198
rfemur -7.68224 -7.40349 20.0742
rtibia 32.823
rfoot -15.0553 15.8731
rtoes -10.2912
lfemur -16.5566 6.5704 -16.0469
ltibia 28.2768
lfoot -4.84787 -15.5804
ltoes 2.57792
127
root -18.47 19.4604 0.0503945 1850.15 -85.5311 -408.368
lowerback -4.06752 8.0165 -4.09852
upperback 7.21971 11.5238 -9.88811
thorax 11.5055 5.57273 -6.93453
lowerneck -5.50624 -11.9164 6.15096
upperneck 2.16508 -16.8185 7.68982
head 1.7825 -8.25264 0.876481
rclavicle 1.39944e-013 -2.8625e-014
rhumerus 44.395 -7.91105 -36.4631
rradius 33.8568
rwrist -24.1305
rhand 11.9274 0.331915
rfingers 7.12502
rthumb 36.9521 -25.7449
lclavicle 1.39944e-013 -2.8625e-014
lhumerus -22.7428 0.42716 75.9837
lradius 22.4408
lwrist -21.1982
lhand -20.7643 -7.31406
lfingers 7.12502
lthumb 5.6019 22.5919
rfemur -7.76276 -7.24962 20.1257
rtibia 32.7837
rfoot -15.0318 15.8671
rtoes -10.4045
lfemur -16.5004 6.54339 -16.0482
ltibia 28.258
lfoot -4.85689 -15.75
ltoes 2.65004
128
root -18.4878 19.4609 0.0507501 1848.21 -85.4175 -406.414
lowerback -4.13477 7.98467 -4.17719
upperback 7.25298 11.4977 -9.86969
thorax 11.5603 5.55072 -6.86705
lowerneck -5.45739 -11.9491 6.11319
upperneck 2.13882 -16.861 7.80349
head 1.78076 -8.27503 0.918005
rclavicle -4.13472e-014 0
rhumerus 44.1117 -7.55479 -35.9601
rradius 34.1985
rwrist -24.2501
rhand 11.9846 0.371879
rfingers 7.12502
rthumb 37.0062 -25.691
lclavicle -4.13472e-014 0
lhumerus -22.9603 0.538299 75.8537
lradius 22.4519
lwrist -21.1961
lhand -20.6648 -7.21043
lfingers 7.12502
lthumb 5.69799 22.693
rfemur -7.83218 -7.1194 20.1474
rtibia 32.7775
rfoot -14.9988 15.8945
rtoes -10.6125
lfemur -16.4711 6.52657 -16.076
ltibia 28.2334
lfoot -4.84193 -15.924
ltoes 2.75014
129
root -18.5038 19.4614 0.0498519 1846.52 -85.283 -404.728
lowerback -4.15325 7.95462 -4.22177
upperback 7.27605 11.4649 -9.85593
thorax 11.5814 5.52973 -6.83025
lowerneck -5.46327 -11.9744 6.08903
upperneck 2.19898 -16.9056 7.8904
head 1.81308 -8.2926 0.942628
rclavicle 2.22639e-014 7.95139e-014
rhumerus 43.8466 -7.26917 -35.5858
rradius 34.5248
rwrist -24.2895
rhand 11.9166 0.374685
rfingers 7.12502
rthumb 36.9418 -25.7048
lclavicle 2.22639e-014 7.95139e-014
lhumerus -23.1752 0.606611 75.6923
lradius 22.4207
lwrist -21.2444
lhand -20.646 -7.10566
lfingers 7.12502
lthumb 5.71617 22.7972
rfemur -7.87179 -6.95878 20.1908
rtibia 32.807
rfoot -14.9769 15.8709
rtoes -10.6453
lfemur -16.4111 6.52089 -16.0735
ltibia 28.1935
lfoot -4.81133 -16.0808
ltoes 2.88724
130
root -18.5182 19.4631 0.0494983 1845 -85.1519 -403.198
lowerback -4.17309 7.92372 -4.25995
upperback 7.28441 11.4297 -9.85063
thorax 11.5894 5.5089 -6.80671
lowerneck -5.4035 -11.9935 6.09178
upperneck 2.18577 -16.9321 7.98829
head 1.80859 -8.30673 0.974801
rclavicle 2.38542e-014 -5.725e-014
rhumerus 43.5974 -7.09185 -35.3842
rradius 34.8421
rwrist -24.1218
rhand 11.8453 0.43242
rfingers 7.12502
rthumb 36.8744 -25.6644
lclavicle 2.38542e-014 -5.725e-014
lhumerus -23.359 0.802613 75.4938
lradius 22.3236
lwrist -21.3608
lhand -20.6201 -7.05802
lfingers 7.12502
lthumb 5.74118 22.8442
rfemur -7.92086 -6.81746 20.2215
rtibia 32.8627
rfoot -14.9233 15.8662
rtoes -10.6603
lfemur -16.3592 6.48125 -16.0738
ltibia 28.1432
lfoot -4.79121 -16.2233
ltoes 2.96473
131
root -18.5315 19.4655 0.0481543 1843.24 -85.0179 -401.446
lowerback -4.1846 7.897 -4.3177
upperback 7.31203 11.4021 -9.84443
thorax 11.6117 5.48952 -6.77142
lowerneck -5.42745 -12.0213 6.09649
upperneck 2.23153 -16.9826 8.06964
head 1.83637 -8.32766 0.993033
rclavicle 1.08139e-013 -3.18055e-014
rhumerus 43.3287 -6.9908 -35.2405
rradius 35.2011
rwrist -23.9331
rhand 11.4741 0.463422
rfingers 7.12502
rthumb 36.5231 -25.7229
lclavicle 1.08139e-013 -3.18055e-014
lhumerus -23.4587 1.11648 75.2686
lradius 22.1371
lwrist -21.5826
lhand -20.5474 -7.09178
lfingers 7.12502
lthumb 5.81134 22.8085
rfemur -7.95467 -6.67555 20.2332
rtibia 32.9402
rfoot -14.8793 15.8313
rtoes -10.7159
lfemur -16.3063 6.51654 -16.1019
ltibia 28.083
lfoot -4.73732 -16.4418
ltoes 2.90276
132
root -18.544 19.4685 0.0465418 1841.8 -84.9022 -400.011
lowerback -4.1813 7.88067 -4.36411
upperback 7.31845 11.3845 -9.85364
thorax 11.6079 5.47728 -6.75993
lowerneck -5.45965 -12.0514 6.14839
upperneck 2.31104 -17.0421 8.12761
head 1.87033 -8.35118 0.995828
rclavicle 3.81667e-014 -5.40694e-014
rhumerus 43.0693 -6.9459 -35.196
rradius 35.5258
rwrist -23.7131
rhand 10.8714 0.562876
rfingers 7.12502
rthumb 35.9523 -25.7653
lclavicle 3.81667e-014 -5.40694e-014
lhumerus -23.5925 1.35719 75.0279
lradius 21.9864
lwrist -21.7538
lhand -20.4409 -7.00224
lfingers 7.12502
lthumb 5.91412 22.8952
rfemur -7.99212 -6.52495 20.2368
rtibia 33.0339
rfoot -14.7856 15.8117
rtoes -10.7089
lfemur -16.2406 6.49244 -16.1197
ltibia 28.0176
lfoot -4.70239 -16.5853
ltoes 3.08909
133
root -18.5549 19.4703 0.0439943 1840.61 -84.7686 -398.821
lowerback -4.17491 7.8649 -4.38849
upperback 7.32455 11.3657 -9.85904
thorax 11.6053 5.4665 -6.75653
lowerneck -5.48817 -12.0743 6.23984
upperneck 2.3641 -17.0908 8.16655
head 1.88932 -8.37109 0.989283
rclavicle -1.01778e-013 8.90555e-014
rhumerus 42.8177 -6.93083 -35.1603
rradius 35.8584
rwrist -23.5744
rhand 10.2517 0.653864
rfingers 7.12502
rthumb 35.365 -25.8162
lclavicle -1.01778e-013 8.90555e-014
lhumerus -23.7023 1.48857 74.8168
lradius 21.8543
lwrist -21.7618
lhand -20.3165 -6.79016
lfingers 7.12502
lthumb 6.03422 23.1039
rfemur -7.99701 -6.33938 20.2681
rtibia 33.142
rfoot -14.7526 15.7224
rtoes -10.8329
lfemur -16.1914 6.47648 -16.1106
ltibia 27.958
lfoot -4.62906 -16.7278
ltoes 3.30183
